<svg xmlns="http://www.w3.org/2000/svg" width="26.307" height="26.307" viewBox="0 0 26.307 26.307">
<defs><style>.a{fill:#fff;}</style></defs>
<path class="a" d="M13.154,0a13.154,13.154,0,0,0,0,26.307,2.189,2.189,0,0,0,2.192-2.192,2.143,2.143,0,0,0-.57-1.469A2.2,2.2,0,0,1,16.42,19H19a7.31,7.31,0,0,0,7.308-7.308C26.307,5.232,20.417,0,13.154,0ZM5.115,13.154a2.192,2.192,0,1,1,2.192-2.192A2.189,2.189,0,0,1,5.115,13.154ZM9.5,7.308a2.192,2.192,0,1,1,2.192-2.192A2.189,2.189,0,0,1,9.5,7.308Zm7.308,0A2.192,2.192,0,1,1,19,5.115,2.189,2.189,0,0,1,16.807,7.308Zm4.385,5.846a2.192,2.192,0,1,1,2.192-2.192A2.189,2.189,0,0,1,21.192,13.154Z"/>
</svg>